<svg id="Camada_1" data-name="Camada 1" xmlns="http://www.w3.org/2000/svg" viewBox="0 0 761.46 330"><defs><style>.cls-1{fill:#fff;}</style></defs><path class="cls-1" d="M284.69,278.12h0a160,160,0,1,1-.45-226.71l.06.06a32.1,32.1,0,1,1-45.36,45.43l-.1-.09a95.79,95.79,0,1,0,0,135.45,32.42,32.42,0,1,1,45.86,45.85Z"/><path class="cls-1" d="M171.1,100.86a63.68,63.68,0,1,0,63.68,63.68A63.69,63.69,0,0,0,171.1,100.86Zm0,95.26a31.58,31.58,0,1,1,31.57-31.58A31.57,31.57,0,0,1,171.1,196.12Z"/><path class="cls-1" d="M693.7,238.17a69.56,69.56,0,0,1-36.61-10.37,73.65,73.65,0,0,1-33.55-51.65,74.82,74.82,0,0,1,19-61.19,69.43,69.43,0,0,1,88.3-11.47c6.06,3.84,22.15,14.06,18.52,30.25a21.68,21.68,0,0,1-11.94,14.73,20.16,20.16,0,0,1-18.06-.29,43.84,43.84,0,0,1-7.67-5.47c-2.5-2.1-4.88-4.07-7.67-5.16A28,28,0,0,0,689.22,136a29.88,29.88,0,0,0-22.57,18.53A30.64,30.64,0,0,0,668,178.9a29.24,29.24,0,0,0,17.84,15.3,28.42,28.42,0,0,0,18.53-1,31.07,31.07,0,0,0,7.6-5.12c2.88-2.35,5.85-4.79,9.69-6.36,7.72-3.15,16.17-1.16,22.06,5.19h0a22.23,22.23,0,0,1,6,15.44c-.2,15.59-16.48,25.38-30.11,30.85A69.38,69.38,0,0,1,693.7,238.17Zm.12-136.83a61.76,61.76,0,0,0-45,19.58,66,66,0,0,0-16.8,54,64.86,64.86,0,0,0,29.53,45.49,61.17,61.17,0,0,0,54.77,4.72c9.15-3.67,24.53-11.53,24.68-22.87a13.69,13.69,0,0,0-3.65-9.38c-3.45-3.72-8.14-4.87-12.54-3.08a31.1,31.1,0,0,0-7.49,5.06c-2.91,2.37-5.91,4.83-9.81,6.42a36.84,36.84,0,0,1-24.13,1.29,37.87,37.87,0,0,1-23.17-19.78,39.41,39.41,0,0,1-1.64-31.32,38.18,38.18,0,0,1,29.19-24,36.56,36.56,0,0,1,19.36,2c4.1,1.59,7.13,4.12,10.06,6.56a36.79,36.79,0,0,0,6.16,4.47,11.69,11.69,0,0,0,10.46.11,13,13,0,0,0,7.16-8.76c1.58-7-3-13.51-14.7-21a61.18,61.18,0,0,0-26.49-9.21C697.82,101.44,695.81,101.34,693.82,101.34Z"/><path class="cls-1" d="M427.3,238.09a69.63,69.63,0,0,1-36.61-10.35,73.58,73.58,0,0,1-33.55-51.6,74.7,74.7,0,0,1,19-61.13,69.48,69.48,0,0,1,88.3-11.46c6.06,3.85,22.15,14,18.52,30.22a21.64,21.64,0,0,1-11.94,14.71A20.15,20.15,0,0,1,453,148.2a44.13,44.13,0,0,1-7.66-5.47c-2.5-2.09-4.87-4.06-7.66-5.15a28.09,28.09,0,0,0-14.85-1.51,29.88,29.88,0,0,0-22.57,18.51,30.57,30.57,0,0,0,1.31,24.3,29.22,29.22,0,0,0,17.84,15.29,28.49,28.49,0,0,0,18.53-1c2.7-1.1,5.08-3,7.6-5.11,2.88-2.35,5.85-4.79,9.7-6.35,7.71-3.15,16.16-1.16,22,5.18h0a22.18,22.18,0,0,1,6,15.42c-.2,15.57-16.48,25.35-30.11,30.82A69.57,69.57,0,0,1,427.3,238.09Zm.12-136.68a61.74,61.74,0,0,0-45,19.56,65.88,65.88,0,0,0-16.8,53.92,64.78,64.78,0,0,0,29.53,45.44A61.23,61.23,0,0,0,450,225.05c9.15-3.67,24.53-11.52,24.68-22.85a13.67,13.67,0,0,0-3.65-9.37c-3.45-3.72-8.14-4.86-12.54-3.07a31,31,0,0,0-7.49,5.05c-2.91,2.37-5.91,4.83-9.81,6.42A36.9,36.9,0,0,1,417,202.51a37.85,37.85,0,0,1-23.17-19.75,39.36,39.36,0,0,1-1.64-31.3,38.18,38.18,0,0,1,29.19-24,36.56,36.56,0,0,1,19.36,2c4.1,1.59,7.13,4.11,10.06,6.55A36.79,36.79,0,0,0,457,140.5a11.69,11.69,0,0,0,10.46.1,12.94,12.94,0,0,0,7.16-8.74c1.58-7-3-13.5-14.7-21a61,61,0,0,0-26.49-9.2C431.42,101.51,429.41,101.41,427.42,101.41Z"/><path class="cls-1" d="M555.77,238.07a70.11,70.11,0,0,1-8.32-.5c-14-1.69-26.58-7.57-35.37-16.55-12.38-12.66-15-30.1-15-42.5V78.8c0-13.06,10.33-23.69,23-23.69s23,10.63,23,23.69V90.93h48.68c11.36,0,19,6.88,19,17.11,0,10.77-8.52,19.53-19,19.53H543.16v47.48c0,7,1.16,12.27,3.44,15.67,1.14,1.72,3.37,4,9.68,4,4.56,0,7.85-1.59,10.35-5,1.11-1.51,2.11-3.15,3.17-4.9a43.89,43.89,0,0,1,7.13-9.59,20.24,20.24,0,0,1,23.93-3c8.64,5,12.45,15.93,9.49,27.13a52,52,0,0,1-40.81,37.48l-.48.1A79.46,79.46,0,0,1,555.77,238.07ZM520.14,63.9a14.72,14.72,0,0,0-14.49,14.9v99.72c0,10.73,2.16,25.73,12.46,36.26,7.43,7.6,18.2,12.59,30.34,14.06a67.85,67.85,0,0,0,18.94-.5l.39-.09a43.36,43.36,0,0,0,34.32-31.18c1.92-7.25-.27-14.15-5.45-17.17a12,12,0,0,0-13.93,1.79,36.8,36.8,0,0,0-5.67,7.78c-1.11,1.83-2.26,3.72-3.6,5.54-4.13,5.63-9.91,8.49-17.17,8.49-7.66,0-13.29-2.63-16.73-7.81-3.27-4.87-4.93-11.82-4.93-20.64V118.78h57.22A10.6,10.6,0,0,0,602.28,108c0-7.72-8-8.32-10.44-8.32H534.62V78.8A14.72,14.72,0,0,0,520.14,63.9Z"/></svg>